<svg width="350" height="350" viewBox="0 0 350 350" fill="none" xmlns="http://www.w3.org/2000/svg">
    <rect width="350" height="350" fill="#0D47A1" />
    <path fill-rule="evenodd" clip-rule="evenodd"
        d="M87.0072 155.331V157.686H56V155.331C59.0613 155.12 61.1148 154.478 62.1605 153.406C63.2062 152.334 63.7291 150.153 63.7291 146.861V105.87C63.7291 102.368 63.1986 100.156 62.1378 99.235C61.0769 98.314 59.031 97.6874 56 97.3553V95H85.9615C93.9027 95 99.942 96.2833 104.079 98.85C108.217 101.417 110.285 105.825 110.285 112.076C110.285 115.126 109.475 117.987 107.853 120.659C106.231 123.331 103.556 125.483 99.8284 127.113C97.0095 128.261 94.1907 128.955 91.3718 129.197C88.553 129.438 84.3702 129.559 78.8235 129.559V146.861C78.8235 150.273 79.3994 152.508 80.5512 153.565C81.7029 154.622 83.855 155.21 87.0072 155.331ZM78.8235 101.432V126.343C84.3702 126.253 88.0681 125.619 89.917 124.441C92.857 122.569 94.3271 118.538 94.3271 112.347C94.3271 108.12 93.6148 104.708 92.1902 102.111C90.7656 99.5143 88.0377 98.2159 84.0065 98.2159C82.1576 98.2159 80.8315 98.4348 80.0283 98.8726C79.2251 99.3105 78.8235 100.163 78.8235 101.432ZM134.618 159C137.801 159 140.619 158.411 143.075 157.234C146.863 155.392 150.197 152.115 153.077 147.405L150.94 146.091C149.182 148.024 147.712 149.398 146.53 150.213C144.59 151.572 142.529 152.251 140.347 152.251C135.77 152.251 132.572 149.7 130.754 144.597C129.753 141.879 129.147 138.663 128.935 134.949H152.668C152.668 134.104 152.562 132.881 152.349 131.28C151.925 127.868 151.167 125.09 150.076 122.946C148.621 120.108 146.545 117.888 143.847 116.288C141.15 114.688 138.27 113.887 135.209 113.887C129.844 113.887 125.26 115.858 121.456 119.798C117.652 123.739 115.75 129.272 115.75 136.398C115.75 144.28 117.751 150.017 121.751 153.61C125.752 157.203 130.041 159 134.618 159ZM128.708 131.507H141.211C141.15 126.041 140.726 122.222 139.937 120.047C139.149 117.873 137.573 116.786 135.209 116.786C132.784 116.786 131.125 118.039 130.231 120.546C129.337 123.052 128.829 126.706 128.708 131.507ZM192.277 159C193.823 159 195.293 158.728 196.687 158.185C198.899 157.339 200.915 155.86 202.734 153.746L201.324 151.798C200.718 152.402 200.271 152.772 199.983 152.908C199.695 153.044 199.369 153.112 199.006 153.112C198.581 153.112 198.195 152.878 197.846 152.41C197.498 151.942 197.323 151.376 197.323 150.711V128.246C197.323 122.75 195.565 118.975 192.049 116.922C188.503 114.899 184.093 113.887 178.819 113.887C173.909 113.887 169.772 114.929 166.407 117.013C163.043 119.096 161.36 121.92 161.36 125.483C161.36 127.476 161.989 129 163.247 130.057C164.505 131.114 166.028 131.643 167.817 131.643C169.362 131.643 170.719 131.167 171.886 130.216C173.053 129.265 173.636 127.913 173.636 126.162C173.636 125.468 173.507 124.811 173.25 124.192C172.992 123.573 172.651 123.007 172.227 122.493L171.681 121.859C171.439 121.587 171.257 121.331 171.135 121.089C171.014 120.848 170.954 120.546 170.954 120.183C170.954 119.247 171.492 118.47 172.568 117.851C173.644 117.232 175.015 116.922 176.682 116.922C179.653 116.922 181.721 117.579 182.888 118.892C184.055 120.206 184.639 122.237 184.639 124.984V131.733C176.031 134.209 169.711 136.67 165.68 139.116C161.648 141.562 159.633 144.868 159.633 149.035C159.633 152.448 160.739 154.961 162.952 156.577C165.164 158.192 167.544 159 170.09 159C171.999 159 173.939 158.668 175.909 158.004C179.152 156.947 182.062 155.135 184.639 152.568C184.972 154.35 185.502 155.694 186.23 156.599C187.503 158.2 189.519 159 192.277 159ZM174.568 150.824C175.493 151.866 176.531 152.387 177.682 152.387C179.198 152.387 180.607 151.934 181.911 151.028C182.638 150.485 183.502 149.639 184.502 148.492V134.949C182.017 135.553 179.834 136.504 177.955 137.803C174.773 140.007 173.181 142.815 173.181 146.227C173.181 148.25 173.644 149.783 174.568 150.824ZM229.794 155.467C227.673 155.195 226.354 154.712 225.839 154.018C225.324 153.323 225.066 151.934 225.066 149.851V139.343L227.112 137.078L235.932 149.534C236.932 150.953 237.561 151.927 237.819 152.455C238.077 152.983 238.205 153.399 238.205 153.701C238.205 154.274 237.895 154.697 237.273 154.969C236.652 155.241 235.675 155.407 234.341 155.467V157.686H256.073V155.467C255.528 155.377 255.088 155.248 254.755 155.082C254.421 154.916 254.073 154.576 253.709 154.063L235.705 129.378L242.934 122.086C244.813 120.213 246.753 118.885 248.753 118.1C249.875 117.677 251.39 117.345 253.3 117.103V114.975H233.341V117.103C235.341 117.285 236.758 117.526 237.592 117.828C238.425 118.13 238.842 118.749 238.842 119.685C238.842 120.047 238.69 120.538 238.387 121.157C238.084 121.776 237.584 122.433 236.887 123.127L225.066 134.949V95H207.607V97.2647C209.335 97.6572 210.517 98.1555 211.154 98.7594C211.79 99.3633 212.108 100.647 212.108 102.609V149.851C212.108 151.904 211.767 153.255 211.085 153.904C210.403 154.554 209.244 155.075 207.607 155.467V157.686H229.794V155.467ZM266.062 156.939C265.683 157.347 265.251 158.034 264.766 159H262.538V143.645H265.13C266.039 148.084 267.736 151.217 270.222 153.044C272.707 154.871 275.253 155.784 277.86 155.784C280.254 155.784 282.012 155.248 283.134 154.176C284.255 153.104 284.816 151.693 284.816 149.941C284.816 148.28 284.21 146.861 282.997 145.684C282.331 145.05 281.255 144.37 279.769 143.645L272.859 140.294C269.222 138.512 266.615 136.58 265.039 134.496C263.432 132.413 262.629 129.952 262.629 127.113C262.629 123.52 263.887 120.417 266.403 117.805C268.918 115.193 272.434 113.887 276.951 113.887C278.921 113.887 281.012 114.212 283.225 114.861C285.437 115.51 286.817 115.835 287.362 115.835C288.12 115.835 288.658 115.677 288.976 115.36C289.294 115.042 289.56 114.597 289.772 114.023H291.818V127.43H289.453C288.574 124.29 287.135 121.769 285.134 119.866C283.134 117.964 280.8 117.013 278.133 117.013C276.072 117.013 274.533 117.586 273.518 118.734C272.503 119.881 271.995 121.119 271.995 122.448C271.995 123.535 272.45 124.622 273.359 125.709C274.238 126.826 275.905 127.974 278.36 129.151L283.452 131.597C286.604 133.107 288.908 134.572 290.363 135.991C292.788 138.406 294 141.381 294 144.914C294 148.356 292.75 151.564 290.249 154.539C287.749 157.513 283.998 159 278.997 159C277.754 159 276.504 158.872 275.246 158.615C273.988 158.358 272.434 157.913 270.585 157.279L268.994 156.735C268.418 156.524 268.062 156.403 267.926 156.373C267.789 156.343 267.615 156.328 267.403 156.328C266.888 156.328 266.441 156.531 266.062 156.939Z"
        fill="white" />
    <path fill-rule="evenodd" clip-rule="evenodd"
        d="M137.244 104.879V106.241H118.554V104.879C120.602 104.879 121.964 104.552 122.638 103.897C123.312 103.242 123.649 101.937 123.649 99.9823V71.7544C121.089 71.8243 119.126 72.2345 117.761 72.9851C115.252 74.3817 113.835 76.9915 113.511 80.8146H112L112.051 70H143.619L143.67 80.8146H142.16C141.665 76.9566 140.248 74.3468 137.91 72.9851C136.595 72.2345 134.633 71.8243 132.021 71.7544V99.9823C132.021 101.955 132.358 103.264 133.032 103.91C133.707 104.556 135.11 104.879 137.244 104.879ZM159.108 104.958V106.241H146.486V104.958C147.442 104.835 148.146 104.569 148.599 104.159C149.051 103.749 149.277 102.933 149.277 101.711V74.3992C149.277 73.3343 149.089 72.588 148.714 72.1603C148.338 71.7326 147.596 71.4489 146.486 71.3093V70H156.625V85.0828C157.7 83.7561 158.831 82.7305 160.017 82.006C161.204 81.2816 162.539 80.9193 164.024 80.9193C166.038 80.9193 167.702 81.5172 169.017 82.713C170.331 83.9088 170.988 85.9469 170.988 88.8273V101.711C170.988 102.915 171.189 103.705 171.59 104.08C171.991 104.456 172.661 104.748 173.599 104.958V106.241H161.285V104.958C162.223 104.766 162.863 104.504 163.205 104.172C163.546 103.84 163.717 103.09 163.717 101.92V88.9321C163.717 87.7101 163.597 86.7936 163.358 86.1826C162.949 85.0828 162.138 84.5329 160.926 84.5329C160.022 84.5329 159.087 84.9606 158.123 85.816C157.158 86.6714 156.676 87.2562 156.676 87.5704V101.92C156.676 103.09 156.847 103.84 157.188 104.172C157.53 104.504 158.17 104.766 159.108 104.958ZM186.605 107C188.398 107 189.985 106.66 191.367 105.979C193.501 104.914 195.379 103.02 197 100.297L195.797 99.5372C194.807 100.654 193.979 101.449 193.313 101.92C192.221 102.706 191.06 103.098 189.831 103.098C187.254 103.098 185.453 101.623 184.429 98.673C183.866 97.1019 183.525 95.2427 183.405 93.0955H196.77C196.77 92.6067 196.71 91.8997 196.59 90.9745C196.351 89.0019 195.925 87.3958 195.31 86.1564C194.491 84.5155 193.322 83.2324 191.803 82.3071C190.284 81.3819 188.662 80.9193 186.938 80.9193C183.917 80.9193 181.336 82.0584 179.194 84.3365C177.051 86.6147 175.98 89.8136 175.98 93.9335C175.98 98.4897 177.107 101.807 179.36 103.884C181.613 105.961 184.028 107 186.605 107ZM183.277 91.1054H190.318C190.284 87.9457 190.045 85.7374 189.601 84.4805C189.157 83.2236 188.27 82.5952 186.938 82.5952C185.573 82.5952 184.638 83.3197 184.135 84.7686C183.631 86.2175 183.345 88.3298 183.277 91.1054Z"
        fill="white" />
</svg>
    